# xmcd
#
# Track frame offsets:
#	150
#	13770
#	27524
#	40112
#	52167
#	74218
#	91056
#	105904
#	119381
#	135431
#	154155
#	165405
#	185703
#	201448
#	214649
#	229355
#
# Disc length: 3268 seconds
#
# Revision: 0
# Processed by: cddbd v1.5.2PL0 Copyright (c) Steve Scherf et al.
# Submitted via: EasyCDDAExtractor 9.1.0.1
#
DISCID=e30cc210
DTITLE=Various Artist - Bluegrass Unlimited Sampler
DYEAR=2004
DGENRE=Bluegrass
TTITLE0=The Seldom Scene - City of New Orleans
TTITLE1=Rhonda Vincent - Wishing Well Blues
TTITLE2=Rock Country - The Old Home Place
TTITLE3=The Country Gentlemen - Redwood Hill
TTITLE4=IIIRd Time Out - Erase The Miles
TTITLE5=Blue Highway - Blue Ridge Mountain Girl
TTITLE6=Tony Rice - Beaumont Rag
TTITLE7=Kieth Whitley and Ricky Skaggs - This Weary Heart You Stole Away
TTITLE8=The Lonsome Rive Band - You Gotta Do What You Gotta Do
TTITLE9=Dale Evans - Pastures of Plenty
TTITLE10=Kenny and Amanda Smith Band - House Down The Block
TTITLE11=Larry Sparks - John Deere Tractor
TTITLE12=The Karl Shiflett and Big Country Show - Where The Smoke Goes Up
TTITLE13=Ralph Stanley - Hemlocks and Primroses
TTITLE14=Paul Williams and The Victory Trio - Go Rest High On That Mountain
TTITLE15=Del McCiury - Eli Renfro
EXTD=
EXTT0=
EXTT1=
EXTT2=
EXTT3=
EXTT4=
EXTT5=
EXTT6=
EXTT7=
EXTT8=
EXTT9=
EXTT10=
EXTT11=
EXTT12=
EXTT13=
EXTT14=
EXTT15=
PLAYORDER=
